<?xml version="1.0" encoding="UTF-8"?>
<svg id="Layer_1" data-name="Layer 1" xmlns="http://www.w3.org/2000/svg" viewBox="0 0 192 192">
  <defs>
    <style>
      .cls-1 {
        fill: #ff7c1a;
      }

      .cls-2 {
        fill: #01020c;
      }
    </style>
  </defs>
  <path class="cls-2" d="M126.35,125.67c-1.4-6.22-3.11-15.32-5.12-27.31-.23-1.34-.45-2.62-.67-3.85-1.97-11.34,1.7-22.92,9.84-31.06l1.6-1.6,47.39,47.39c1.79,1.79,1.74,4.69-.1,6.43l-3.34,3.14c-1.28,1.21-2.72,2.59-4.32,4.16-2.16,2.12-5.66,2.02-7.69-.22l-3.12-3.44c-9.98-10.85-16.68-18.03-20.09-21.54.57,3.2,1.42,8.43,2.56,15.69,1.27,7.75,2.33,14.04,3.18,18.88l.44,2.49c1.21,6.83-.99,13.82-5.9,18.72l-4.68,4.68c-.91.91-2.38.91-3.29,0l-35.96-35.96-37.6,37.6-14.64-14.64c1.05-3.76,2-8.06,2.86-12.9.85-4.84,1.92-11.13,3.18-18.88,1.14-7.27,1.99-12.5,2.56-15.69-3.41,3.5-10.11,10.68-20.09,21.54-3.41,3.76-5.71,6.28-6.89,7.55-3.24-3.24-5.99-5.92-8.24-8.04s-4.56-4.15-6.93-6.07l50.88-50.88,14.71,14.71c-.79,3.85-2.1,11.12-3.94,21.8-2.01,11.99-3.72,21.1-5.12,27.31l29.26-31.1,29.26,31.1Z"/>
  <polygon class="cls-1" points="75.52 109.68 97.09 85.17 118.66 109.68 105.38 78.14 132 61.74 102.21 66.75 97.09 32.12 91.97 66.75 62.18 61.74 88.8 78.14 75.52 109.68"/>
</svg>