<?xml version="1.0" encoding="UTF-8"?>
<svg id="Layer_1" data-name="Layer 1" xmlns="http://www.w3.org/2000/svg" viewBox="0 0 512 512">
  <defs>
    <style>
      .cls-1 {
        fill: #ff7c1a;
      }

      .cls-2 {
        fill: #01020c;
      }
    </style>
  </defs>
  <path class="cls-2" d="M339.36,337.49c-3.85-17.07-8.53-42.07-14.06-75.01-.63-3.67-1.24-7.19-1.83-10.57-5.41-31.14,4.66-62.95,27.01-85.3l4.39-4.39,130.15,130.15c4.9,4.9,4.78,12.89-.27,17.65l-9.16,8.62c-3.52,3.31-7.47,7.12-11.86,11.41-5.94,5.82-15.54,5.56-21.13-.61l-8.58-9.46c-27.4-29.81-45.8-49.52-55.18-59.15,1.56,8.78,3.91,23.14,7.03,43.1,3.48,21.28,6.4,38.56,8.74,51.84l1.21,6.84c3.32,18.76-2.73,37.95-16.2,51.42l-12.86,12.86c-2.49,2.49-6.54,2.49-9.03,0l-98.75-98.75-103.26,103.26-40.21-40.21c2.88-10.33,5.5-22.14,7.84-35.43,2.34-13.28,5.26-30.56,8.74-51.84,3.13-19.95,5.47-34.32,7.03-43.1-9.38,9.62-27.77,29.34-55.18,59.15-9.38,10.34-15.69,17.25-18.94,20.73-8.89-8.89-16.44-16.26-22.63-22.09-6.19-5.83-12.53-11.39-19.02-16.68l139.74-139.74,40.39,40.39c-2.16,10.58-5.77,30.54-10.82,59.86-5.53,32.94-10.22,57.94-14.06,75.01l80.36-85.4,80.36,85.4Z"/>
  <polygon class="cls-1" points="199.74 293.56 258.99 226.27 318.24 293.56 281.77 206.95 354.86 161.92 273.07 175.68 258.99 80.56 244.92 175.68 163.13 161.92 236.22 206.95 199.74 293.56"/>
</svg>