<?xml version="1.0" encoding="UTF-8"?>
<svg id="Layer_1" data-name="Layer 1" xmlns="http://www.w3.org/2000/svg" viewBox="0 0 48 48">
  <defs>
    <style>
      .cls-1 {
        fill: #ff7c1a;
      }

      .cls-2 {
        fill: #01020c;
      }
    </style>
  </defs>
  <path class="cls-2" d="M31.41,31.25c-.34-1.52-.76-3.74-1.25-6.67-.06-.33-.11-.64-.16-.94-.48-2.77.41-5.6,2.4-7.58l.39-.39,11.57,11.57c.44.44.43,1.15-.02,1.57l-.81.77c-.31.29-.66.63-1.05,1.01-.53.52-1.38.49-1.88-.05l-.76-.84c-2.44-2.65-4.07-4.4-4.91-5.26.14.78.35,2.06.63,3.83.31,1.89.57,3.43.78,4.61l.11.61c.29,1.67-.24,3.37-1.44,4.57l-1.14,1.14c-.22.22-.58.22-.8,0l-8.78-8.78-9.18,9.18-3.58-3.58c.26-.92.49-1.97.7-3.15.21-1.18.47-2.72.78-4.61.28-1.77.49-3.05.63-3.83-.83.86-2.47,2.61-4.91,5.26-.83.92-1.4,1.53-1.68,1.84-.79-.79-1.46-1.45-2.01-1.96s-1.11-1.01-1.69-1.48l12.43-12.43,3.59,3.59c-.19.94-.51,2.72-.96,5.32-.49,2.93-.91,5.15-1.25,6.67l7.15-7.59,7.15,7.59Z"/>
  <polygon class="cls-1" points="19 27.34 24.27 21.36 29.53 27.34 26.29 19.64 32.79 15.63 25.52 16.86 24.27 8.4 23.01 16.86 15.74 15.63 22.24 19.64 19 27.34"/>
</svg>